<svg xmlns="http://www.w3.org/2000/svg" xmlns:xlink="http://www.w3.org/1999/xlink" version="1.1" width="33" height="33" enable-background="new 1.091 0 33 33" xml:space="preserve"><rect id="backgroundrect" width="100%" height="100%" x="0" y="0" fill="none" stroke="none"/>

<g class="currentLayer" style=""><title>Layer 1</title><path d="M31.88,24.783c-1.475,2.53-3.477,4.532-6.006,6.006C23.343,32.264,20.583,33,17.592,33c-2.993,0-5.754-0.736-8.284-2.211  c-2.53-1.474-4.532-3.476-6.006-6.006c-1.475-2.53-2.211-5.29-2.211-8.283c0-2.991,0.736-5.752,2.211-8.283  c1.474-2.529,3.476-4.531,6.006-6.006C11.838,0.737,14.598,0,17.592,0c2.992,0,5.751,0.737,8.283,2.211  c2.529,1.475,4.531,3.477,6.006,6.006c1.473,2.531,2.211,5.292,2.211,8.283C34.091,19.493,33.353,22.253,31.88,24.783z   M28.316,10.296c-1.121-1.892-2.629-3.388-4.521-4.488c-1.893-1.099-3.959-1.66-6.203-1.683c-2.245-0.021-4.313,0.528-6.205,1.65  c-1.892,1.122-3.389,2.629-4.488,4.521c-1.101,1.893-1.662,3.96-1.683,6.204c-0.022,2.244,0.528,4.312,1.65,6.204  c1.122,1.893,2.629,3.389,4.521,4.488c1.892,1.1,3.96,1.649,6.205,1.649c2.244,0,4.31-0.55,6.203-1.649s3.389-2.596,4.488-4.488  c1.1-1.892,1.672-3.96,1.717-6.204C29.999,14.256,29.439,12.188,28.316,10.296z M17.392,21.648l7.326-7.393  c0.396-0.396,0.596-0.88,0.596-1.452c0-0.571-0.199-1.056-0.596-1.452c-0.395-0.396-0.881-0.594-1.451-0.594  c-0.572,0-1.057,0.198-1.451,0.594l-5.875,5.874l-2.574-2.508c-0.396-0.396-0.88-0.594-1.452-0.594  c-0.573,0-1.056,0.198-1.452,0.594c-0.396,0.396-0.594,0.881-0.594,1.452c0,0.572,0.198,1.056,0.594,1.452l4.026,4.026  c0.396,0.396,0.88,0.594,1.452,0.594C16.512,22.242,16.997,22.044,17.392,21.648z" id="svg_1" class="selected" fill="#dadada" fill-opacity="1"/></g></svg>