<svg xmlns="http://www.w3.org/2000/svg" xmlns:xlink="http://www.w3.org/1999/xlink" version="1.1" width="256" height="256" enable-background="new 0 0 256 256" xml:space="preserve"><rect id="backgroundrect" width="100%" height="100%" x="0" y="0" fill="none" stroke="none"/>
<title>eshop</title>

<g class="currentLayer" style=""><title>Layer 1</title><path fill="#d39f3d" d="M202.9,93l7.5,115.7H45.6L53.1,93H202.9 M216.1,79H39.9l-9.3,143.7h194.6L216.1,79L216.1,79L216.1,79z   M168.7,119.7V65.9c0-15.5-12.6-28.1-28.1-28.1h-25.3c-15.5,0-28.1,12.6-28.1,28.1v53.8c0,0.6,0.4,1,1,1h12c0.6,0,1-0.4,1-1V65.9  c0-7.8,6.3-14.1,14.1-14.1h25.3c7.8,0,14.1,6.3,14.1,14.1v53.8c0,0.6,0.4,1,1,1h12C168.3,120.7,168.7,120.2,168.7,119.7z" id="svg_1" class="selected" fill-opacity="1"/></g></svg>