<?xml version="1.0" encoding="utf-8"?>
<svg version="1.1" xmlns="http://www.w3.org/2000/svg" xmlns:xlink="http://www.w3.org/1999/xlink" x="0px" y="0px"
	 width="256px" height="256px" viewBox="0 0 256 256" enable-background="new 0 0 256 256" xml:space="preserve">
<title>friends</title>
<path fill="#737373" d="M208,51.8c3.3,0,6,2.7,6,6v140.5c0,3.3-2.7,6-6,6H48c-3.3,0-6-2.7-6-6V57.8c0-3.3,2.7-6,6-6H208 M208,37.8
	H48c-11,0-20,9-20,20v140.5c0,11,9,20,20,20h160c11,0,20-9,20-20V57.8C228,46.7,219,37.8,208,37.8L208,37.8z M105.7,90.1h-14
	c-0.6,0-1,0.4-1,1v30c0,0.6,0.4,1,1,1h14c0.6,0,1-0.4,1-1v-30C106.7,90.5,106.3,90.1,105.7,90.1z M164.3,90.1h-14c-0.6,0-1,0.4-1,1
	v30c0,0.6,0.4,1,1,1h14c0.6,0,1-0.4,1-1v-30C165.3,90.5,164.8,90.1,164.3,90.1C164.3,90.1,164.3,90.1,164.3,90.1L164.3,90.1z
	 M162.9,146.5c-0.5-0.1-1.1,0.1-1.2,0.7c-2.2,7-9.6,20.9-33.7,20.9c-24.2,0-31.6-14-33.7-21c-0.2-0.5-0.7-0.8-1.2-0.7l-10.6,2.9
	c-0.5,0.1-0.8,0.7-0.7,1.2c0,0,0,0,0,0c4.5,14.9,18.9,30.5,46.3,30.5c27.4,0,41.7-15.5,46.3-30.4c0.2-0.5-0.1-1.1-0.7-1.2
	c0,0,0,0,0,0L162.9,146.5z"/>
</svg>