<?xml version="1.0" encoding="utf-8"?>
<svg version="1.1" xmlns="http://www.w3.org/2000/svg" xmlns:xlink="http://www.w3.org/1999/xlink" x="0px" y="0px"
	 width="256px" height="256px" viewBox="0 0 1685.2 1201.1" enable-background="new 0 0 1685.2 1201.1" xml:space="preserve">
<path fill="#1076FF" d="M100.7,1100.5h1483.9V100.6H100.7V1100.5z M1182.5,999.9H500.6V615.2
	c0-89.2,72.5-161.9,161.7-161.9H701c89.2,0,161.8,72.6,161.8,161.9l0.1,164.8h0.2h7.7h1c22.7,0,41.5-4.6,52.5-24.4
	c4.4-8.2,8.1-13.7,21.4-31.3c22.6-28.6,55.9-45.1,91.5-45.1h30.4c64.6,0,117.2,52.6,117.2,116.7L1182.5,999.9z M1483.9,999.9h-208.6
	l2.1-203.5c0-115.8-94.1-209.9-209.8-209.9H1037c-28.6,0-56.3,5.8-81.9,16.7C949,468.4,837.3,360.6,701,360.6h-38.7
	c-140.3,0-254.4,114.3-254.4,254.6v384.7H201.4V201.2h1282.5V999.9z"/>
</svg>