<?xml version="1.0" encoding="utf-8"?>
<svg version="1.1" xmlns="http://www.w3.org/2000/svg" xmlns:xlink="http://www.w3.org/1999/xlink" x="0px" y="0px"
	 width="256px" height="256px" viewBox="0 0 256 256" enable-background="new 0 0 256 256" xml:space="preserve">
<title>controller</title>
<path fill="#737373" d="M176.8,48.9l25,25c14.9,14.9,14.9,39,0,53.9l-73.9,73.9c-14.9,14.9-39,14.9-53.9,0c0,0,0,0,0,0l-25-25
	L176.8,48.9 M176.8,29.5c-0.3,0-0.5,0.1-0.7,0.3L29.8,176.1c-0.4,0.4-0.4,1,0,1.4L64,211.6c20.4,20.4,53.4,20.4,73.7,0c0,0,0,0,0,0
	l73.9-73.9c20.4-20.4,20.4-53.4,0-73.7c0,0,0,0,0,0l-34.2-34.2C177.3,29.6,177,29.5,176.8,29.5L176.8,29.5L176.8,29.5z M130.2,158.7
	v-0.5c0-9.6-7.8-17.3-17.3-17.3h-0.5c-9.6,0-17.3,7.8-17.3,17.3v0.5c0,9.6,7.8,17.3,17.3,17.3h0.5
	C122.4,176.1,130.2,168.3,130.2,158.7z M150.2,109.4L150.2,109.4c5,0,9-4,9-9v0l0,0c0-5-4-9-9-9l0,0l0,0c-5,0-9,4-9,9v0l0,0
	C141.2,105.3,145.2,109.4,150.2,109.4L150.2,109.4z M175.3,109.4L175.3,109.4c5,0,9-4,9-9v0l0,0c0-5-4-9-9-9l0,0l0,0c-5,0-9,4-9,9v0
	l0,0C166.3,105.3,170.3,109.4,175.3,109.4L175.3,109.4L175.3,109.4z M150.2,134.5L150.2,134.5c5,0,9-4,9-9v0l0,0c0-5-4-9-9-9l0,0
	l0,0c-5,0-9,4-9,9v0l0,0C141.2,130.4,145.2,134.5,150.2,134.5C150.2,134.5,150.2,134.5,150.2,134.5L150.2,134.5z M175.3,134.5
	L175.3,134.5c5,0,9-4,9-9v0l0,0c0-5-4-9-9-9l0,0l0,0c-5,0-9,4-9,9v0l0,0C166.3,130.4,170.3,134.5,175.3,134.5L175.3,134.5z"/>
</svg>