<svg xmlns="http://www.w3.org/2000/svg" xmlns:xlink="http://www.w3.org/1999/xlink" version="1.1" width="256" height="256" style="" xml:space="preserve"><rect id="backgroundrect" width="100%" height="100%" x="0" y="0" fill="none" stroke="none" class="" style=""/>

<g class="currentLayer" style=""><title>Layer 1</title><path d="M58.679069900512694,28.682170867919922 h137.5 c11.6,0 21.6,4.2 29.8,12.5 c8.2,8.3 12.4,18.3 12.4,29.9 v95.1 c0,11.7 -4.1,21.6 -12.4,29.9 c-8.2,8.3 -18.2,12.5 -29.8,12.5 h-46.1 L133.47906990051268,231.68217086791992 c-1.7000000000000002,2.3 -3.7,3.5 -6.1,3.5 c-2.3,0 -4.4,-1.2 -6.3,-3.5 l-16.5,-23.1 H58.679069900512694 c-11.7,0 -21.6,-4.2 -29.9,-12.5 C20.479069900512695,187.78217086791992 16.279069900512695,177.78217086791992 16.279069900512695,166.18217086791992 V71.08217086791993 c0,-11.7 4.2,-21.6 12.5,-29.9 C37.07906990051269,32.882170867919925 47.07906990051269,28.682170867919922 58.679069900512694,28.682170867919922 zM217.3790699005127,166.18217086791992 V71.08217086791993 c0,-5.7 -2.1,-10.7 -6.2,-14.9 c-4.1,-4.2 -9.1,-6.3 -15,-6.3 H58.679069900512694 c-5.9,0 -10.9,2.1 -15,6.3 c-4.1,4.2 -6.2,9.2 -6.2,14.9 v95.1 c0,5.8 2.1,10.7 6.2,14.9 c4.1,4.2 9.1,6.3 15,6.3 h44.7 c2.9,0 5,0.2 6.2,0.7000000000000001 c1.2,0.5 2.7,1.7000000000000002 4.5,3.7 l13.3,16.8 c5.4,-7.3 9.8,-12.9 13,-16.8 c1.9,-2 3.4,-3.3 4.5,-3.7 c1.2,-0.5 3.3,-0.7000000000000001 6.4,-0.7000000000000001 h44.7 c5.9,0 10.9,-2.1 15,-6.3 C215.2790699005127,176.8821708679199 217.3790699005127,171.8821708679199 217.3790699005127,166.18217086791992 zM196.1790699005127,89.48217086791992 v-5.4 c0,-1.4 -0.5,-2.6 -1.5,-3.6 c-1,-1 -2.3,-1.5 -3.8,-1.5 h-127 c-1.4,0 -2.6,0.5 -3.6,1.5 c-1,1 -1.5,2.2 -1.5,3.6 v5.4 c0,1.4 0.5,2.6 1.5,3.7 c1,1.1 2.2,1.6 3.6,1.6 h127 c1.6,0 2.8,-0.5 3.8,-1.6 C195.6790699005127,92.18217086791992 196.1790699005127,90.88217086791992 196.1790699005127,89.48217086791992 zM196.1790699005127,121.18217086791992 v-5.1 c0,-1.5 -0.5,-2.8 -1.5,-3.8 c-1,-1 -2.3,-1.5 -3.8,-1.5 h-127 c-1.4,0 -2.6,0.5 -3.6,1.5 c-1,1 -1.5,2.3 -1.5,3.8 v5.1 c0,1.6 0.5,2.8 1.5,3.8 c1,1 2.2,1.5 3.6,1.5 h127 c1.6,0 2.8,-0.5 3.8,-1.5 C195.6790699005127,123.98217086791992 196.1790699005127,122.78217086791992 196.1790699005127,121.18217086791992 zM196.1790699005127,152.8821708679199 v-5.1 c0,-1.6 -0.5,-2.8 -1.5,-3.8 c-1,-1 -2.3,-1.5 -3.8,-1.5 h-127 c-1.4,0 -2.6,0.5 -3.6,1.5 c-1,1 -1.5,2.3 -1.5,3.8 v5.1 c0,1.6 0.5,2.8 1.5,3.8 c1,1 2.2,1.5 3.6,1.5 h127 c1.6,0 2.8,-0.5 3.8,-1.5 C195.6790699005127,155.68217086791992 196.1790699005127,154.48217086791993 196.1790699005127,152.8821708679199 z" id="svg_1" class="" fill-opacity="1" fill="#d6524d"/></g></svg>