<?xml version="1.0" encoding="utf-8"?>
<svg version="1.1" xmlns="http://www.w3.org/2000/svg" xmlns:xlink="http://www.w3.org/1999/xlink" x="0px" y="0px"
	 width="256px" height="256px" viewBox="0 0 222.1 206.5" style="enable-background:new 0 0 222.1 206.5;" xml:space="preserve">
<path d="M42.4,0h137.5c11.6,0,21.6,4.2,29.8,12.5c8.2,8.3,12.4,18.3,12.4,29.9v95.1c0,11.7-4.1,21.6-12.4,29.9
	c-8.2,8.3-18.2,12.5-29.8,12.5h-46.1L117.2,203c-1.7,2.3-3.7,3.5-6.1,3.5c-2.3,0-4.4-1.2-6.3-3.5l-16.5-23.1H42.4
	c-11.7,0-21.6-4.2-29.9-12.5C4.2,159.1,0,149.1,0,137.5V42.4c0-11.7,4.2-21.6,12.5-29.9C20.8,4.2,30.8,0,42.4,0z M201.1,137.5V42.4
	c0-5.7-2.1-10.7-6.2-14.9c-4.1-4.2-9.1-6.3-15-6.3H42.4c-5.9,0-10.9,2.1-15,6.3c-4.1,4.2-6.2,9.2-6.2,14.9v95.1
	c0,5.8,2.1,10.7,6.2,14.9c4.1,4.2,9.1,6.3,15,6.3h44.7c2.9,0,5,0.2,6.2,0.7c1.2,0.5,2.7,1.7,4.5,3.7l13.3,16.8
	c5.4-7.3,9.8-12.9,13-16.8c1.9-2,3.4-3.3,4.5-3.7c1.2-0.5,3.3-0.7,6.4-0.7h44.7c5.9,0,10.9-2.1,15-6.3
	C199,148.2,201.1,143.2,201.1,137.5z M179.9,60.8v-5.4c0-1.4-0.5-2.6-1.5-3.6c-1-1-2.3-1.5-3.8-1.5h-127c-1.4,0-2.6,0.5-3.6,1.5
	c-1,1-1.5,2.2-1.5,3.6v5.4c0,1.4,0.5,2.6,1.5,3.7c1,1.1,2.2,1.6,3.6,1.6h127c1.6,0,2.8-0.5,3.8-1.6
	C179.4,63.5,179.9,62.2,179.9,60.8z M179.9,92.5v-5.1c0-1.5-0.5-2.8-1.5-3.8c-1-1-2.3-1.5-3.8-1.5h-127c-1.4,0-2.6,0.5-3.6,1.5
	c-1,1-1.5,2.3-1.5,3.8v5.1c0,1.6,0.5,2.8,1.5,3.8c1,1,2.2,1.5,3.6,1.5h127c1.6,0,2.8-0.5,3.8-1.5C179.4,95.3,179.9,94.1,179.9,92.5z
	 M179.9,124.2v-5.1c0-1.6-0.5-2.8-1.5-3.8c-1-1-2.3-1.5-3.8-1.5h-127c-1.4,0-2.6,0.5-3.6,1.5c-1,1-1.5,2.3-1.5,3.8v5.1
	c0,1.6,0.5,2.8,1.5,3.8c1,1,2.2,1.5,3.6,1.5h127c1.6,0,2.8-0.5,3.8-1.5C179.4,127,179.9,125.8,179.9,124.2z"/>
</svg>