<svg xmlns="http://www.w3.org/2000/svg" xmlns:xlink="http://www.w3.org/1999/xlink" version="1.1" width="256" height="256" style="" xml:space="preserve"><rect id="backgroundrect" width="100%" height="100%" x="0" y="0" fill="none" stroke="none" class="" style=""/>
















<g class="currentLayer" style=""><title>Layer 1</title><g id="svg_1" class="selected" fill-opacity="1" fill="#999999">
	<path d="M128.52919044045368,240.15729702932813 c-60.88727768792169,0 -110.41947210791523,-46.363920690355584 -110.41947210791523,-103.33778511761335 c0,-29.46833375405534 13.501261626309816,-57.61012028704813 37.05668745260971,-77.21721842383221 c6.507196137507158,-5.4210751756890385 16.473973530854447,-4.873418066076057 22.26490994962881,1.2106873169844325 c5.7935372165911065,6.084592189380147 5.208357707822476,15.426892269898136 -1.300919067938082,20.84748063926752 c-16.82091995960883,14.012233104977847 -26.471960498002744,34.11003201197516 -26.471960498002744,55.15905046758025 c0,40.71355973810858 35.38385429687646,73.81395544311721 78.87127443118088,73.81395544311721 c43.493141889501274,0 78.86087123991389,-33.100395705008644 78.86087123991389,-73.81395544311721 c0,-21.048531649285444 -9.63959702800021,-41.14633055628274 -26.431388052061443,-55.15905046758025 c-6.530603317857904,-5.4205883693693835 -7.118383624443283,-14.733680070708015 -1.3232859291621275,-20.84748063926752 c5.787295301830906,-6.084105383060488 15.772278279895446,-6.631762492673471 22.273232502642408,-1.2106873169844325 c23.53826056070935,19.60709813678407 37.030679474442216,47.74888466977686 37.030679474442216,77.21721842383221 C238.93981983579198,193.79337633897254 189.4019036606016,240.15729702932813 128.52919044045368,240.15729702932813 zM144.296787284279,107.29324820562036 V33.47929276250313 C144.296787284279,25.31944523242955 137.2418631265644,18.715917506296112 128.52919044045368,18.715917506296112 c-8.710592047857302,0 -15.774879077712198,6.603527726133424 -15.774879077712198,14.763375256207034 v73.81395544311721 c0,8.160821142712917 7.062206391601493,14.763375256207034 15.774879077712198,14.763375256207034 C137.2418631265644,122.05613665550776 144.296787284279,115.45406934833329 144.296787284279,107.29324820562036 z" id="svg_2" fill="#999999"/>
</g><g id="svg_3" class="">
</g><g id="svg_4" class="">
</g><g id="svg_5" class="">
</g><g id="svg_6" class="">
</g><g id="svg_7" class="">
</g><g id="svg_8" class="">
</g><g id="svg_9" class="">
</g><g id="svg_10" class="">
</g><g id="svg_11" class="">
</g><g id="svg_12" class="">
</g><g id="svg_13" class="">
</g><g id="svg_14" class="">
</g><g id="svg_15" class="">
</g><g id="svg_16" class="">
</g><g id="svg_17" class="">
</g></g></svg>