<svg xmlns="http://www.w3.org/2000/svg" xmlns:xlink="http://www.w3.org/1999/xlink" version="1.1" width="256" height="256" enable-background="new 1.091 0 33 33" xml:space="preserve"><rect id="backgroundrect" width="100%" height="100%" x="0" y="0" fill="none" stroke="none" class="" style=""/>

<g class="currentLayer" style=""><title>Layer 1</title><path d="M233.58604324509497,103.10234406583908 c2.9139824370891536,2.9722998271929395 4.380930315441552,6.539059619824467 4.380930315441552,10.70027937789458 v29.41901306233011 c0,4.1679749849501 -1.4669478783523984,7.734734777581624 -4.380930315441552,10.70027937789458 c-2.920620210294368,2.9722998271929395 -6.432002235852823,4.45844974078941 -10.514232757059721,4.45844974078941 h-7.009488504706479 c-1.174885857322962,4.1679749849501 -2.781226972984865,8.322439516140228 -4.819023346985708,12.483659274210341 l4.819023346985708,4.911049941748335 c2.907344663883939,2.9722998271929395 4.374292542236338,6.539059619824467 4.374292542236338,10.70027937789458 s-1.4669478783523984,7.579364559341994 -4.374292542236338,10.254434403815637 L195.4719495007535,217.68450240412687 c-2.6285581892649317,2.9722998271929395 -6.066924709566027,4.45844974078941 -10.295186241287642,4.45844974078941 c-4.241537078132048,0 -7.659990278817497,-1.4861499135964698 -10.295186241287642,-4.45844974078941 l-4.825661120190921,-4.911049941748335 c-4.088868294412116,2.087365105915042 -8.177736588824226,3.7221300108711572 -12.266604883236342,4.911049941748335 v7.133519585263052 c0,4.1679749849501 -1.4669478783523984,7.734734777581624 -4.380930315441552,10.70027937789458 C150.49439826222027,238.49060119447742 146.9830162366618,239.9767511080739 142.90078571545487,239.9767511080739 h-28.91414008191423 c-4.088868294412116,0 -7.600250319970568,-1.4861499135964698 -10.514232757059721,-4.45844974078941 c-2.9139824370891536,-2.9655446003129557 -4.374292542236338,-6.532304392944483 -4.374292542236338,-10.70027937789458 V217.68450240412687 c-4.095506067617329,-1.1889199308771758 -8.177736588824226,-2.8236848358332924 -12.273242656441557,-4.911049941748335 L82.00585433081736,217.68450240412687 c-2.920620210294368,2.9722998271929395 -6.432002235852823,4.45844974078941 -10.514232757059721,4.45844974078941 c-4.095506067617329,0 -7.600250319970568,-1.4861499135964698 -10.514232757059721,-4.45844974078941 l-20.15227945103113,-20.9614690085902 c-2.920620210294368,-2.6750698444736467 -4.380930315441552,-6.160766914545363 -4.380930315441552,-10.47735689085511 c0,-4.303079522549779 1.4603101051471838,-7.802287046381464 4.380930315441552,-10.47735689085511 l4.819023346985708,-4.911049941748335 c-2.044434147206058,-4.154464531190133 -3.7968062733826775,-8.30892906238026 -5.2571163785298625,-12.483659274210341 H33.81562086096031 c-4.095506067617329,0 -7.6068880931757805,-1.4861499135964698 -10.514232757059721,-4.45844974078941 c-2.920620210294368,-2.9655446003129557 -4.380930315441552,-6.532304392944483 -4.380930315441552,-10.70027937789458 v-29.41901306233011 c0,-4.161219758070116 1.4603101051471838,-7.727979550701641 4.380930315441552,-10.70027937789458 c2.907344663883939,-2.9655446003129557 6.418726689442392,-4.45844974078941 10.514232757059721,-4.45844974078941 h6.56475769995711 c1.4603101051471838,-4.45844974078941 3.2126822313238046,-8.612914271979538 5.2571163785298625,-12.483659274210341 L40.82510936566679,81.25594033597099 c-2.920620210294368,-2.9655446003129557 -4.380930315441552,-6.532304392944483 -4.380930315441552,-10.70027937789458 c0,-4.154464531190133 1.4603101051471838,-7.727979550701641 4.380930315441552,-10.70027937789458 L61.40884407503686,39.346512772550554 C64.04404003750702,36.37421294535762 67.47576878460289,34.88806303176114 71.71066808952972,34.88806303176114 c4.22826153172162,0 7.812659062537431,1.4929051404764537 10.726641499626584,4.45844974078941 l4.380930315441552,4.911049941748335 c4.088868294412116,-2.080609879035058 8.171098815619013,-3.857234548470838 12.273242656441557,-5.35013968894729 v-6.687674611184112 c0,-4.161219758070116 1.4603101051471838,-7.727979550701641 4.374292542236338,-10.70027937789458 C106.38639531357012,18.547169209079968 109.89113956592334,17.054264068603516 113.98000786033546,17.054264068603516 h28.91414008191423 c4.0822305212069,0 7.600250319970568,1.4929051404764537 10.514232757059721,4.45844974078941 c2.9139824370891536,2.9722998271929395 4.380930315441552,6.539059619824467 4.380930315441552,10.70027937789458 v6.687674611184112 c4.0822305212069,1.4929051404764537 8.171098815619013,3.2695298099122336 12.266604883236342,5.35013968894729 L174.8815770181782,39.346512772550554 c2.9139824370891536,-2.9655446003129557 6.418726689442392,-4.45844974078941 10.514232757059721,-4.45844974078941 c4.0822305212069,0 7.593612546765354,1.4929051404764537 10.514232757059721,4.45844974078941 l20.15227945103113,20.508868807631274 c2.907344663883939,2.9722998271929395 4.374292542236338,6.545814846704451 4.374292542236338,10.70027937789458 c0,4.1679749849501 -1.4669478783523984,7.734734777581624 -4.374292542236338,10.70027937789458 l-4.819023346985708,4.911049941748335 c2.0377963740008433,4.161219758070116 3.783530726972249,8.315684289260243 5.250478605324646,12.483659274210341 h6.571395473162324 C227.15404100924218,98.64389432504967 230.65878526159543,100.13679946552612 233.58604324509497,103.10234406583908 zM223.50990351957944,113.80262344373365 h-0.43809303154415535 h-12.266604883236342 c-1.4669478783523984,0 -2.854242478242223,-0.5133972428787805 -4.161883799669474,-1.5604574092762924 c-1.3142790946324654,-1.033549712637545 -2.2701184361833504,-2.4521473574341752 -2.854242478242223,-4.2355272537499395 c-1.75237212617662,-6.836289602543758 -4.380930315441552,-13.219979004128593 -7.885674567794789,-19.171333885394453 c-0.8761860630883099,-1.4861499135964698 -1.168248084117747,-3.1209148185525857 -0.8761860630883099,-4.9042947148683504 c0.28542424782422227,-1.790135123195747 1.0155793003978144,-3.2695298099122336 2.1838273845155616,-4.45844974078941 l8.330405372544158,-8.471054507499874 l-20.15227945103113,-20.9614690085902 l-8.761860630883099,8.916899481578815 C175.16700126600244,59.855381580181835 173.64031342880313,60.456596772500404 172.02733453993596,60.74707152833971 c-1.6063411156619023,0.30398520959927827 -3.139666726066445,0 -4.593339058008415,-0.8916899481578818 c-5.84787819379395,-3.566759792631526 -12.120573872721623,-6.241829637105171 -18.838000356398663,-8.025209533420934 C146.84362299935228,51.532942064041606 145.45632839946248,50.71555961156354 144.43411132585945,49.37802468932672 c-1.0288548468082432,-1.3375349222368234 -1.533325610404543,-2.897992331513116 -1.533325610404543,-4.6813722278288825 V32.2129931872875 l-28.91414008191423,-0.4458449740789412 v12.929504248289282 c0,1.4929051404764537 -0.5111085368015144,2.9047475583931 -1.5266878371993282,4.2355272537499395 c-1.0222170736030287,1.3375349222368234 -2.4095116734928537,2.3102875929545132 -4.161883799669474,2.9047475583931 c-6.432002235852823,1.783379896315763 -12.704697914780498,4.451694513909427 -18.838000356398663,8.025209533420934 c-1.4669478783523984,0.8916899481578818 -3.0666512208090855,1.1956751577571598 -4.825661120190921,0.8916899481578818 c-1.75237212617662,-0.2904747558393102 -3.2126822313238046,-1.033549712637545 -4.374292542236338,-2.229224870394705 L71.9230768320966,50.046792150445135 L51.339342122726514,70.55566095807642 l8.761860630883099,9.362744455657758 C61.26281306452214,81.10732534461134 61.92659038504359,82.51916776252799 62.072621395558315,84.1539326674841 c0.13939323730950395,1.6415201318361008 -0.21904651577207782,3.201977541112394 -1.0952325788603885,4.6813722278288825 c-3.5047442523532406,5.951354881265863 -6.133302441618171,12.335044282850696 -7.885674567794789,19.171333885394453 c-0.292062021029437,1.783379896315763 -1.0952325788603885,3.201977541112394 -2.4028739002876396,4.2355272537499395 c-1.3142790946324654,1.047060166397513 -2.854242478242223,1.5604574092762924 -4.599976831213632,1.5604574092762924 H33.81562086096031 v29.41901306233011 h12.266604883236342 c1.75237212617662,0 3.285697736581163,0.5201524697587647 4.599976831213632,1.5604574092762924 c1.3076413214272513,1.040304939517529 2.1108118792582027,2.4521473574341752 2.4028739002876396,4.2355272537499395 c1.7590098993818353,6.843044829423744 4.380930315441552,13.226734231008576 7.885674567794789,19.171333885394453 c0.8761860630883099,1.4929051404764537 1.1616103109125329,3.1209148185525857 0.8761860630883099,4.9042947148683504 c-0.292062021029437,1.790135123195747 -0.8761860630883099,3.2762850367922174 -1.75237212617662,4.45844974078941 l-8.761860630883099,8.471054507499874 l20.15227945103113,20.9614690085902 l8.761860630883099,-8.471054507499874 c1.4536723319419695,-1.4861499135964698 3.2060444581185896,-2.229224870394705 5.2571163785298625,-2.229224870394705 c1.4536723319419695,0 2.7679514265744354,0.297229982719294 3.9428372838973975,0.8916899481578818 c5.8412404205887345,3.566759792631526 12.11393609951641,6.241829637105171 18.838000356398663,8.025209533420934 c1.75237212617662,0.6012151923185718 3.139666726066445,1.5604574092762924 4.161883799669474,2.9047475583931 c1.0155793003978144,1.330779695356839 1.5266878371993282,2.7493773401534694 1.5266878371993282,4.2355272537499395 v12.483659274210341 l28.91414008191423,0.4458449740789412 v-12.929504248289282 c0,-1.4861499135964698 0.5044707635963,-2.9047475583931 1.533325610404543,-4.2355272537499395 c1.0155793003978144,-1.3375349222368234 2.4028739002876396,-2.303532366074529 4.161883799669474,-2.9047475583931 c6.717426483677043,-1.783379896315763 12.990122162604719,-4.451694513909427 18.838000356398663,-8.025209533420934 c1.4603101051471838,-0.8916899481578818 3.0666512208090855,-1.1889199308771758 4.819023346985708,-0.8916899481578818 s3.2126822313238046,1.040304939517529 4.380930315441552,2.229224870394705 l8.323767599338943,8.471054507499874 l20.597010255780496,-20.508868807631274 l-8.330405372544158,-9.362744455657758 c-1.168248084117747,-1.1889199308771758 -1.8984031366913394,-2.6007623487938223 -2.1838273845155616,-4.2355272537499395 c-0.292062021029437,-1.6280096780761328 0,-3.1952223142324097 0.8761860630883099,-4.6813722278288825 c3.4981064791480248,-5.944599654385879 6.133302441618171,-12.328289055970712 7.885674567794789,-19.171333885394453 c0.5841240420588741,-1.783379896315763 1.533325610404543,-3.1952223142324097 2.854242478242223,-4.2355272537499395 c1.3076413214272513,-1.040304939517529 2.694935921317076,-1.5604574092762924 4.161883799669474,-1.5604574092762924 h12.266604883236342 L223.50990351957944,113.80262344373365 zM160.65019126619842,95.74590199353656 c8.907891641397818,9.065514472938464 13.355199688891513,19.98871633787251 13.355199688891513,32.769605594802144 c0,12.78764448380962 -4.447308047493696,23.629783626183862 -13.355199688891513,32.546683107762675 c-8.92116718780825,8.910144254698832 -19.654446460640045,13.36859399548824 -32.20647559170061,13.36859399548824 c-12.565304677470994,0 -23.218930671840216,-4.45844974078941 -31.98079130272331,-13.36859399548824 c-8.761860630883099,-8.916899481578815 -13.136153173119437,-19.76579385083304 -13.136153173119437,-32.546683107762675 c0,-12.780889256929639 4.374292542236338,-23.704091121863684 13.136153173119437,-32.769605594802144 s19.422124398457537,-13.605026936287675 31.98079130272331,-13.605026936287675 C140.99574480555836,82.14763028412887 151.72902407839015,86.68714274747809 160.65019126619842,95.74590199353656 zM150.13595850913867,150.58483380524626 c5.973995884693023,-6.08645941886554 8.980907146655177,-13.442901491168064 8.980907146655177,-22.069326216907566 c0,-8.612914271979538 -3.000273488756941,-15.96935634428206 -8.980907146655177,-22.069326216907566 c-5.987271431103452,-6.08645941886554 -13.222444224787221,-9.14657719549827 -21.692242834640886,-9.14657719549827 c-8.476436383058878,0 -15.704971403537435,3.053362549752746 -21.692242834640886,9.14657719549827 c-5.987271431103452,6.093214645745524 -8.980907146655177,13.449656718048047 -8.980907146655177,22.069326216907566 c0,8.619669498859523 2.9869979423465116,15.976111571162045 8.980907146655177,22.069326216907566 c5.980633657898239,6.093214645745524 13.209168678376795,9.14657719549827 21.692242834640886,9.14657719549827 C136.90687651114624,159.72465577386455 144.14204930483,156.6780484509918 150.13595850913867,150.58483380524626 z" id="svg_1" class="selected" fill-opacity="1" fill="#999999"/></g></svg>