<svg xmlns="http://www.w3.org/2000/svg" xmlns:xlink="http://www.w3.org/1999/xlink" version="1.1" style="" xml:space="preserve" width="494.45" height="494.45"><rect id="backgroundrect" width="100%" height="100%" x="0" y="0" fill="none" stroke="none"/>
















<g class="currentLayer" style=""><title>Layer 1</title><g id="svg_1" class="selected" fill="#dadada" fill-opacity="1">
	<g id="svg_2" fill="#dadada" fill-opacity="1">
		<g id="svg_3" fill="#dadada" fill-opacity="1">
			<path d="M395.225,277.325c-6.8,0-13.5-2.6-18.7-7.8c-71.4-71.3-187.4-71.3-258.8,0c-10.3,10.3-27.1,10.3-37.4,0     s-10.3-27.1,0-37.4c92-92,241.6-92,333.6,0c10.3,10.3,10.3,27.1,0,37.4C408.725,274.725,401.925,277.325,395.225,277.325z" id="svg_4" fill="#dadada" fill-opacity="1"/>
		</g>
		<g id="svg_5" fill="#dadada" fill-opacity="1">
			<path d="M323.625,348.825c-6.8,0-13.5-2.6-18.7-7.8c-15.4-15.4-36-23.9-57.8-23.9s-42.4,8.5-57.8,23.9     c-10.3,10.3-27.1,10.3-37.4,0c-10.3-10.3-10.3-27.1,0-37.4c25.4-25.4,59.2-39.4,95.2-39.4s69.8,14,95.2,39.5     c10.3,10.3,10.3,27.1,0,37.4C337.225,346.225,330.425,348.825,323.625,348.825z" id="svg_6" fill="#dadada" fill-opacity="1"/>
		</g>
		<g id="svg_7" fill="#dadada" fill-opacity="1">
			<circle cx="247.125" cy="398.92498779296875" r="35.29999923706055" id="svg_8" fill="#dadada" fill-opacity="1"/>
		</g>
		<g id="svg_9" fill="#dadada" fill-opacity="1">
			<path d="M467.925,204.625c-6.8,0-13.5-2.6-18.7-7.8c-111.5-111.4-292.7-111.4-404.1,0c-10.3,10.3-27.1,10.3-37.4,0     s-10.3-27.1,0-37.4c64-64,149-99.2,239.5-99.2s175.5,35.2,239.5,99.2c10.3,10.3,10.3,27.1,0,37.4     C481.425,202.025,474.625,204.625,467.925,204.625z" id="svg_10" fill="#dadada" fill-opacity="1"/>
		</g>
	</g>
</g><g id="svg_11">
</g><g id="svg_12">
</g><g id="svg_13">
</g><g id="svg_14">
</g><g id="svg_15">
</g><g id="svg_16">
</g><g id="svg_17">
</g><g id="svg_18">
</g><g id="svg_19">
</g><g id="svg_20">
</g><g id="svg_21">
</g><g id="svg_22">
</g><g id="svg_23">
</g><g id="svg_24">
</g><g id="svg_25">
</g></g></svg>